
<svg width="121px" height="136px" viewBox="493 0 121 136" version="1.1" xmlns="http://www.w3.org/2000/svg" xmlns:xlink="http://www.w3.org/1999/xlink">
    <!-- Generator: Sketch 3.8.3 (29802) - http://www.bohemiancoding.com/sketch -->
    <desc>Created with Sketch.</desc>
    <defs></defs>
    <g id="noun_39526_cc" stroke="none" stroke-width="1" fill="none" fill-rule="evenodd" transform="translate(493.000000, 0.000000)">
        <g id="Group" fill="#4A4A4A">
            <path d="M60.6411667,20.8374054 C55.0623333,20.8374054 50.5248333,16.2887568 50.5248333,10.6980541 C50.5248333,5.10551351 55.0623333,0.555027027 60.6411667,0.555027027 C66.22,0.555027027 70.7575,5.10367568 70.7575,10.6980541 C70.7575,16.2869189 66.2181667,20.8374054 60.6411667,20.8374054 M60.6411667,2.40021622 C56.0761667,2.40021622 52.3636667,6.12183784 52.3636667,10.6980541 C52.3636667,15.2724324 56.0761667,18.9940541 60.6411667,18.9940541 C65.2043333,18.9940541 68.9168333,15.2724324 68.9168333,10.6980541 C68.9168333,6.12183784 65.2043333,2.40021622 60.6411667,2.40021622" id="Shape"></path>
            <path d="M10.692,49.2007568 L10.692,49.2007568 C8.92466667,49.2007568 7.17933333,48.7302703 5.64116667,47.8407568 C3.30183333,46.4844324 1.628,44.2992432 0.9295,41.6821622 C0.229166667,39.0669189 0.5885,36.3322162 1.93966667,33.9871351 C3.74,30.8572973 7.10233333,28.9147027 10.7085,28.9147027 C12.474,28.9147027 14.2211667,29.3851892 15.7575,30.2747027 C20.5865,33.0718919 22.2493333,39.2856216 19.4608333,44.1283243 C17.6586667,47.2581622 14.2981667,49.2007568 10.692,49.2007568 M10.7085,30.7598919 C7.75683333,30.7598919 5.00683333,32.3514595 3.53283333,34.9097297 C2.42733333,36.8302703 2.134,39.0632432 2.706,41.2061622 C3.278,43.3472432 4.6475,45.1354595 6.56333333,46.2436757 C7.821,46.9732973 9.24916667,47.3574054 10.6938333,47.3574054 C13.6436667,47.3574054 16.3955,45.7676757 17.8695,43.2094054 C20.1501667,39.247027 18.7935,34.1617297 14.8408333,31.8754595 C13.5795,31.144 12.1513333,30.7598919 10.7085,30.7598919" id="Shape"></path>
            <path d="M10.241,106.739784 L10.241,106.739784 C6.633,106.739784 3.27433333,104.797189 1.47033333,101.667351 C-1.31816667,96.8246486 0.342833333,90.6109189 5.17366667,87.8137297 C6.71183333,86.9242162 8.45716667,86.4537297 10.2226667,86.4537297 C13.8306667,86.4537297 17.1911667,88.3963243 18.9915,91.5261622 C20.3445,93.8712432 20.702,96.6041081 20.0016667,99.2211892 C19.3013333,101.83827 17.6293333,104.023459 15.29,105.379784 C13.7536667,106.269297 12.0065,106.739784 10.241,106.739784 M10.2226667,88.2970811 C8.77983333,88.2970811 7.34983333,88.6811892 6.094,89.4108108 C2.14133333,91.6970811 0.781,96.7823784 3.06533333,100.744757 C4.53933333,103.304865 7.28933333,104.894595 10.241,104.894595 C11.6838333,104.894595 13.1138333,104.510486 14.3696667,103.780865 C16.2855,102.672649 17.6531667,100.884432 18.227,98.7433514 C18.799,96.6022703 18.5056667,94.3674595 17.4001667,92.4469189 C15.9261667,89.8886486 13.1743333,88.2970811 10.2226667,88.2970811" id="Shape"></path>
            <path d="M59.7043333,135.911784 C54.1255,135.911784 49.588,131.363135 49.588,125.770595 C49.588,120.178054 54.1255,115.629405 59.7043333,115.629405 C65.2831667,115.629405 69.8206667,120.178054 69.8206667,125.770595 C69.8206667,131.363135 65.2831667,135.911784 59.7043333,135.911784 M59.7043333,117.474595 C55.1411667,117.474595 51.4286667,121.196216 51.4286667,125.770595 C51.4286667,130.346811 55.1411667,134.066595 59.7043333,134.066595 C64.2693333,134.066595 67.9818333,130.346811 67.9818333,125.770595 C67.9818333,121.196216 64.2693333,117.474595 59.7043333,117.474595" id="Shape"></path>
            <path d="M109.637,107.552108 L109.637,107.552108 C107.869667,107.552108 106.124333,107.081622 104.586167,106.192108 C99.7571667,103.394919 98.0943333,97.1811892 100.882833,92.3384865 C102.685,89.2086486 106.0455,87.2660541 109.6535,87.2660541 C111.419,87.2660541 113.166167,87.7365405 114.7025,88.6260541 C119.5315,91.4250811 121.1925,97.636973 118.404,102.479676 C116.603667,105.607676 113.243167,107.552108 109.637,107.552108 M109.655333,89.1112432 C106.703667,89.1112432 103.953667,90.700973 102.479667,93.2610811 C100.197167,97.2234595 101.555667,102.306919 105.508333,104.595027 C106.766,105.322811 108.194167,105.708757 109.637,105.708757 C112.588667,105.708757 115.338667,104.119027 116.812667,101.558919 C119.093333,97.5965405 117.736667,92.5130811 113.784,90.224973 C112.526333,89.4953514 111.098167,89.1112432 109.655333,89.1112432" id="Shape"></path>
            <path d="M110.122833,50.0149189 L110.122833,50.0149189 C106.514833,50.0149189 103.156167,48.0723243 101.352167,44.9424865 C98.5636667,40.0997838 100.224667,33.8860541 105.0555,31.0888649 C106.593667,30.1993514 108.339,29.7288649 110.1045,29.7288649 C113.7125,29.7288649 117.071167,31.6714595 118.873333,34.8012973 C120.2245,37.1463784 120.583833,39.8792432 119.8835,42.4963243 C119.183167,45.1134054 117.511167,47.2985946 115.17,48.6549189 C113.633667,49.5444324 111.888333,50.0149189 110.122833,50.0149189 M110.1045,31.5722162 C108.661667,31.5722162 107.231667,31.9563243 105.975833,32.6859459 C102.023167,34.9722162 100.662833,40.0575135 102.947167,44.0198919 C104.421167,46.58 107.171167,48.1697297 110.122833,48.1697297 L110.124667,48.1697297 C111.5675,48.1697297 112.995667,47.7856216 114.253333,47.056 C116.167333,45.9477838 117.536833,44.1595676 118.108833,42.0184865 C118.680833,39.8774054 118.3875,37.6425946 117.283833,35.7220541 C115.806167,33.1619459 113.056167,31.5722162 110.1045,31.5722162" id="Shape"></path>
            <rect id="Rectangle-path" transform="translate(27.146603, 49.868301) rotate(206.513803) translate(-27.146603, -49.868301) " x="16.516339" y="48.946653" width="21.2605288" height="1.84329605"></rect>
            <rect id="Rectangle-path" x="59.2515" y="19.912973" width="1.84066667" height="21.1020541"></rect>
            <rect id="Rectangle-path" transform="translate(92.916316, 49.551179) rotate(241.294885) translate(-92.916316, -49.551179) " x="91.9969028" y="38.9974346" width="1.83882644" height="21.1074884"></rect>
            <rect id="Rectangle-path" transform="translate(92.685804, 87.319597) rotate(211.272303) translate(-92.685804, -87.319597) " x="82.1580094" y="86.3970129" width="21.0555901" height="1.84516788"></rect>
            <rect id="Rectangle-path" x="59.2515" y="95.4481081" width="1.84066667" height="22.0044324"></rect>
            <rect id="Rectangle-path" transform="translate(27.428621, 86.913301) rotate(241.294885) translate(-27.428621, -86.913301) " x="26.5092081" y="76.3595569" width="1.83882644" height="21.1074884"></rect>
        </g>
        <g id="Group-2" transform="translate(33.115789, 40.672897)" fill="#000000">
            <path d="M27.3842105,54.6542056 C42.5080924,54.6542056 54.7684211,42.4194449 54.7684211,27.3271028 C54.7684211,12.2347607 42.5080924,0 27.3842105,0 C12.2603287,0 0,12.2347607 0,27.3271028 C0,42.4194449 12.2603287,54.6542056 27.3842105,54.6542056 Z M27.3842105,50.5551402 C40.2395101,50.5551402 50.6607895,40.1555936 50.6607895,27.3271028 C50.6607895,14.498612 40.2395101,4.09906542 27.3842105,4.09906542 C14.5289109,4.09906542 4.10763158,14.498612 4.10763158,27.3271028 C4.10763158,40.1555936 14.5289109,50.5551402 27.3842105,50.5551402 Z" id="main"></path>
        </g>
        <path d="M76.1494116,86.0615805 C72.4111694,90.9475415 66.7881809,94.0560748 60.5,94.0560748 C53.9201646,94.0560748 48.0686576,90.6524982 44.3427191,85.3703894 C48.5597588,82.0937324 52.873884,80.014535 53.8060819,79.5494081 C53.9702456,79.3855867 53.9702456,79.3855867 53.9702456,79.2217653 L53.9702456,76.6006231 C53.1494269,75.4538733 52.8210994,74.1433022 52.6569357,72.9965524 C52.3286082,72.9965524 51.836117,72.5050883 51.179462,70.3754102 C50.522807,67.7542679 51.179462,67.2628037 51.836117,67.2628037 L52.0002807,67.2628037 C51.5077895,65.7884112 51.5077895,64.3140187 51.836117,63.0034476 C52.1644444,61.529055 52.9852632,60.2184839 53.9702456,59.2355556 C54.4627368,58.58027 55.2835556,58.0888058 55.9402105,57.5973416 C56.5968655,57.2696989 57.2535205,56.7782347 57.9101754,56.6144133 C58.5668304,56.4505919 59.0593216,56.2867705 59.7159766,56.2867705 L60.5367953,56.2867705 C62.1784327,56.2867705 63.3275789,56.7782347 64.3125614,57.2696989 C65.7900351,58.0888058 66.4466901,59.2355556 66.4466901,59.2355556 C66.4466901,59.2355556 70.5507836,59.5631983 68.7449825,67.9180893 C69.2374737,68.0819107 69.7299649,68.9010177 69.0733099,71.0306957 C68.416655,73.1603738 67.9241637,73.651838 67.4316725,73.651838 C67.2675088,73.651838 67.2675088,73.4880166 67.103345,73.4880166 C66.9391813,74.470945 66.6108538,75.4538733 66.1183626,76.4368017 L66.1183626,79.5494081 C66.1183626,79.7132295 66.1183626,79.8770509 66.2825263,79.8770509 C67.2335797,80.3515859 71.7047563,82.6588769 76.1494116,86.0615805 Z M63.8753888,49.8737824 C62.7774731,49.6740361 61.6498578,49.5700935 60.5,49.5700935 C60.4533873,49.5700935 60.4068111,49.5702643 60.360272,49.5706053 C61.5570803,49.5786788 62.7312044,49.6821512 63.8753888,49.8737824 Z" id="Combined-Shape" fill="#4A4A4A"></path>
    </g>
</svg>
