
<svg width="127px" height="120px" viewBox="987 9 127 120" version="1.1" xmlns="http://www.w3.org/2000/svg" xmlns:xlink="http://www.w3.org/1999/xlink">
    <!-- Generator: Sketch 3.8.3 (29802) - http://www.bohemiancoding.com/sketch -->
    <desc>Created with Sketch.</desc>
    <defs></defs>
    <g id="icon4" stroke="none" stroke-width="1" fill="none" fill-rule="evenodd" transform="translate(987.000000, 9.000000)">
        <path d="M79.2580645,12.3103448 C89.3441613,12.3103448 97.5483871,20.5952069 97.5483871,30.7779138 C97.5483871,40.958569 89.3441613,49.2413793 79.2580645,49.2413793 C69.1719677,49.2413793 60.9677419,40.958569 60.9677419,30.7779138 C60.9677419,20.5952069 69.1719677,12.3103448 79.2580645,12.3103448 L79.2580645,12.3103448 Z M79.2580645,8.20689655 C66.914129,8.20689655 56.9032258,18.3095862 56.9032258,30.7779138 C56.9032258,43.2421379 66.914129,53.3448276 79.2580645,53.3448276 C91.602,53.3448276 101.612903,43.2421379 101.612903,30.7779138 C101.612903,18.3095862 91.602,8.20689655 79.2580645,8.20689655 L79.2580645,8.20689655 L79.2580645,8.20689655 Z" id="Shape" fill="#4A4A4A"></path>
        <path d="M126,102.707259 L122.260645,82.1366724 C118.055903,68.461931 105.073839,57.4482759 79.2580645,57.4482759 C53.4422903,57.4482759 40.1513226,68.3101034 36.2554839,82.1366724 L32.516129,102.707259 C32.516129,105.68431 39.9480968,108.320776 51.3978387,109.96831 L51.2129032,111.757414 C51.2129032,115.756224 63.7702258,119 79.2580645,119 C94.7459032,119 107.303226,115.756224 107.303226,111.757414 L107.11829,109.96831 C118.568032,108.320776 126,105.68431 126,102.707259 L126,102.707259 Z M106.697613,105.883328 L105.508742,94.3793103 L101.769387,94.3793103 L103.076129,110.395069 L103.139129,111.002379 C100.913806,112.50219 92.4900968,114.896552 79.2580645,114.896552 C66.0260323,114.896552 57.6023226,112.50219 55.377,111.002379 L55.44,110.395069 L56.7467419,94.3793103 L53.0073871,94.3793103 L51.8185161,105.883328 C41.8584194,104.436862 38.0662258,102.705207 36.792,101.9235 L40.2183871,83.0763621 C44.2300645,69.1943966 58.0839677,61.5517241 79.2580645,61.5517241 C100.050097,61.5517241 113.906032,69.2108103 118.307903,83.1276552 L121.726161,101.925552 C120.449903,102.705207 116.65771,104.436862 106.697613,105.883328 L106.697613,105.883328 Z" id="Shape" fill="#4A4A4A"></path>
        <path d="M46.7419355,49.2413793 C20.9261613,49.2413793 7.63519355,60.1032069 3.73935484,73.9297759 L0,94.5003621 C0,97.4774138 7.43196774,100.113879 18.8817097,101.761414 L18.6967742,103.550517 C18.6967742,106.449603 25.3138065,108.9445 34.847129,110.101672 C31.6158387,108.663414 29.6587742,106.952276 28.8702581,104.916966 C25.8421935,104.213224 23.7957097,103.425362 22.8588387,102.793431 L24.2285806,86.1703621 L20.4892258,86.1703621 L19.3003548,97.6743793 C9.33822581,96.2279138 5.54806452,94.4962586 4.27383871,93.7145517 L7.70022581,74.8674138 C11.7139355,60.9875 25.5678387,53.3448276 46.7419355,53.3448276 C52.550129,53.3448276 57.7974194,53.9644483 62.4655161,55.1298276 C65.2232903,54.4958448 68.1477097,54.0362586 71.2062581,53.7408103 C64.8168387,50.9135345 56.7569032,49.2413793 46.7419355,49.2413793 L46.7419355,49.2413793 Z" id="Shape" fill="#4A4A4A"></path>
        <path d="M54.2694194,39.3787414 C51.9709355,40.4312759 49.4265484,41.0344828 46.7419355,41.0344828 C36.6558387,41.0344828 28.4516129,32.7516724 28.4516129,22.5710172 C28.4516129,12.3883103 36.6558387,4.10344828 46.7419355,4.10344828 C52.6354839,4.10344828 57.8726129,6.94303448 61.2177097,11.327569 C62.2094516,10.3919828 63.2560645,9.51589655 64.3819355,8.74034483 C60.291,3.43048276 53.919871,0.00205172414 46.7419355,0.00205172414 C34.398,0.00205172414 24.3870968,10.1047414 24.3870968,22.573069 C24.3870968,35.0372931 34.398,45.1399828 46.7419355,45.1399828 C49.9976129,45.1399828 53.0785161,44.4218793 55.8688065,43.160069 C55.2408387,41.9495517 54.7124516,40.6856897 54.2694194,39.3787414 L54.2694194,39.3787414 Z" id="Shape" fill="#4A4A4A"></path>
    </g>
</svg>
