<svg width="127" height="120" viewBox="987 9 127 120" xmlns="http://www.w3.org/2000/svg"><g fill="#4A4A4A" fill-rule="evenodd"><path d="M1066.258 21.31c10.086 0 18.29 8.285 18.29 18.468 0 10.18-8.204 18.463-18.29 18.463-10.086 0-18.29-8.282-18.29-18.463 0-10.183 8.204-18.468 18.29-18.468zm0-4.103c-12.344 0-22.355 10.103-22.355 22.57 0 12.465 10.011 22.568 22.355 22.568 12.344 0 22.355-10.103 22.355-22.567 0-12.468-10.011-22.571-22.355-22.571zm46.742 94.5l-3.74-20.57c-4.204-13.675-17.186-24.689-43.002-24.689-25.816 0-39.107 10.862-43.003 24.689l-3.739 20.57c0 2.977 7.432 5.614 18.882 7.261l-.185 1.79c0 3.998 12.557 7.242 28.045 7.242 15.488 0 28.045-3.244 28.045-7.243l-.185-1.789c11.45-1.647 18.882-4.284 18.882-7.26zm-19.302 3.176l-1.19-11.504h-3.739l1.307 16.016.063.607c-2.225 1.5-10.649 3.895-23.88 3.895-13.233 0-21.657-2.395-23.882-3.895l.063-.607 1.307-16.016h-3.74l-1.188 11.504c-9.96-1.446-13.753-3.178-15.027-3.96l3.426-18.847c4.012-13.882 17.866-21.524 39.04-21.524 20.792 0 34.648 7.659 39.05 21.576l3.418 18.798c-1.276.78-5.068 2.51-15.028 3.957z"/><path d="M1033.742 58.241c-25.816 0-39.107 10.862-43.003 24.689L987 103.5c0 2.977 7.432 5.614 18.882 7.261l-.185 1.79c0 2.899 6.617 5.394 16.15 6.55-3.231-1.438-5.188-3.149-5.977-5.184-3.028-.704-5.074-1.492-6.011-2.124l1.37-16.623h-3.74l-1.189 11.504c-9.962-1.446-13.752-3.178-15.026-3.96l3.426-18.847c4.014-13.88 17.868-21.522 39.042-21.522 5.808 0 11.055.62 15.724 1.785 2.757-.634 5.682-1.094 8.74-1.39-6.39-2.826-14.45-4.499-24.464-4.499zm7.528-9.862a18.03 18.03 0 0 1-7.528 1.655c-10.086 0-18.29-8.282-18.29-18.463 0-10.183 8.204-18.468 18.29-18.468 5.893 0 11.13 2.84 14.476 7.225a26.71 26.71 0 0 1 3.164-2.588c-4.091-5.31-10.462-8.738-17.64-8.738-12.344 0-22.355 10.103-22.355 22.571 0 12.464 10.011 22.567 22.355 22.567a22.07 22.07 0 0 0 9.127-1.98 27.066 27.066 0 0 1-1.6-3.781z"/></g></svg>