<svg width="121" height="136" viewBox="493 0 121 136" xmlns="http://www.w3.org/2000/svg"><g fill="none" fill-rule="evenodd"><g fill="#4A4A4A"><path d="M553.641 20.837c-5.579 0-10.116-4.548-10.116-10.139 0-5.592 4.537-10.143 10.116-10.143s10.117 4.549 10.117 10.143c0 5.589-4.54 10.14-10.117 10.14m0-18.438c-4.565 0-8.277 3.722-8.277 8.298 0 4.574 3.712 8.296 8.277 8.296 4.563 0 8.276-3.722 8.276-8.296 0-4.576-3.713-8.298-8.276-8.298m-49.949 46.8c-1.767 0-3.513-.47-5.05-1.36a10.074 10.074 0 0 1-4.712-6.158c-.7-2.615-.341-5.35 1.01-7.695a10.144 10.144 0 0 1 8.769-5.072c1.765 0 3.512.47 5.049 1.36 4.829 2.797 6.491 9.01 3.703 13.853a10.146 10.146 0 0 1-8.769 5.073m.017-18.441a8.306 8.306 0 0 0-7.176 4.15 8.261 8.261 0 0 0-.827 6.296 8.235 8.235 0 0 0 3.857 5.038 8.241 8.241 0 0 0 4.13 1.113 8.31 8.31 0 0 0 7.177-4.148c2.28-3.962.924-9.047-3.03-11.334a8.246 8.246 0 0 0-4.131-1.115m-.468 75.98a10.15 10.15 0 0 1-8.77-5.073c-2.79-4.842-1.128-11.056 3.703-13.853a10.1 10.1 0 0 1 5.049-1.36 10.14 10.14 0 0 1 8.768 5.072 10.082 10.082 0 0 1 1.01 7.695 10.08 10.08 0 0 1-4.711 6.159 10.095 10.095 0 0 1-5.049 1.36m-.018-18.443a8.234 8.234 0 0 0-4.129 1.114c-3.953 2.286-5.313 7.371-3.029 11.334a8.303 8.303 0 0 0 7.176 4.15 8.235 8.235 0 0 0 4.129-1.114 8.241 8.241 0 0 0 3.857-5.038 8.263 8.263 0 0 0-.827-6.296 8.31 8.31 0 0 0-7.177-4.15m49.481 47.615c-5.578 0-10.116-4.549-10.116-10.141 0-5.593 4.538-10.142 10.116-10.142 5.58 0 10.117 4.55 10.117 10.142s-4.538 10.14-10.117 10.14m0-18.436c-4.563 0-8.275 3.721-8.275 8.296 0 4.576 3.712 8.296 8.275 8.296 4.565 0 8.278-3.72 8.278-8.296 0-4.575-3.713-8.296-8.278-8.296m49.933-9.923c-1.767 0-3.513-.47-5.05-1.36-4.83-2.797-6.493-9.01-3.704-13.854a10.147 10.147 0 0 1 8.77-5.072c1.766 0 3.513.47 5.05 1.36 4.828 2.8 6.49 9.011 3.701 13.854a10.145 10.145 0 0 1-8.767 5.072m.018-18.44a8.303 8.303 0 0 0-7.175 4.15c-2.283 3.961-.924 9.045 3.028 11.333a8.258 8.258 0 0 0 4.129 1.114 8.303 8.303 0 0 0 7.176-4.15c2.28-3.962.924-9.046-3.029-11.334a8.24 8.24 0 0 0-4.129-1.114m.468-39.096a10.15 10.15 0 0 1-8.77-5.073c-2.79-4.842-1.128-11.056 3.703-13.853a10.1 10.1 0 0 1 5.049-1.36c3.608 0 6.966 1.942 8.768 5.072a10.09 10.09 0 0 1 1.01 7.695 10.077 10.077 0 0 1-4.713 6.159 10.088 10.088 0 0 1-5.047 1.36m-.018-18.443a8.234 8.234 0 0 0-4.13 1.114c-3.952 2.286-5.312 7.372-3.028 11.334a8.303 8.303 0 0 0 7.176 4.15h.002a8.24 8.24 0 0 0 4.128-1.114 8.239 8.239 0 0 0 3.856-5.038 8.27 8.27 0 0 0-.825-6.296 8.313 8.313 0 0 0-7.18-4.15"/><path d="M529.248 55.438l-19.025-9.49.823-1.65 19.025 9.491zm23.004-35.525h1.841v21.102h-1.841zM577.1 55.427l-.883-1.613 18.514-10.138.883 1.613zm17.105 38.146l-17.997-10.93.958-1.577 17.997 10.93zm-41.953 1.875h1.841v22.004h-1.841zm-40.638-2.659l-.883-1.613 18.513-10.138.883 1.613z"/></g><path d="M553.5 95.327c15.124 0 27.384-12.235 27.384-27.327 0-15.092-12.26-27.327-27.384-27.327S526.116 52.908 526.116 68c0 15.092 12.26 27.327 27.384 27.327zm0-4.099c12.855 0 23.277-10.4 23.277-23.228 0-12.828-10.422-23.228-23.277-23.228S530.223 55.172 530.223 68c0 12.828 10.422 23.228 23.277 23.228z" fill="#000"/><path d="M569.15 86.062c-3.739 4.886-9.362 7.994-15.65 7.994-6.58 0-12.431-3.404-16.157-8.686 4.217-3.276 8.53-5.355 9.463-5.82.164-.164.164-.164.164-.328V76.6c-.82-1.147-1.149-2.458-1.313-3.604-.328 0-.82-.492-1.478-2.622-.656-2.62 0-3.112.657-3.112H545a7.585 7.585 0 0 1-.164-4.26c.328-1.474 1.15-2.785 2.134-3.767.493-.656 1.314-1.147 1.97-1.639.657-.327 1.314-.819 1.97-.983.657-.163 1.15-.327 1.806-.327h.82c1.642 0 2.792.491 3.777.983 1.477.819 2.134 1.966 2.134 1.966s4.104.327 2.298 8.682c.492.164.985.983.328 3.113-.656 2.13-1.149 2.62-1.641 2.62-.164 0-.164-.163-.329-.163a10.398 10.398 0 0 1-.985 2.949v3.112c0 .164 0 .328.165.328.95.475 5.422 2.782 9.866 6.185zm-12.275-36.188a18.841 18.841 0 0 0-3.515-.303c1.197.008 2.371.111 3.515.303z" fill="#4A4A4A"/></g></svg>