<svg xmlns="http://www.w3.org/2000/svg" viewBox="0 0 100 125"><path d="M94.047 89.445L52.628 48.026a3.254 3.254 0 1 0-4.602 4.602l41.419 41.419a3.254 3.254 0 1 0 4.602-4.602z"/><path d="M56.423 41.47l.009-.009a1.302 1.302 0 0 0-.472-2.143l-10.4-5.568 1.631-11.865a1.3 1.3 0 1 0-2.19-1.116l-8.639 8.294-10.778-5.219a1.303 1.303 0 0 0-1.739 1.739l5.219 10.779L20.769 45a1.3 1.3 0 0 0 1.116 2.19l11.864-1.631 5.653 10.557a1.301 1.301 0 0 0 2.429-.385l2.113-11.786 11.787-2.114a1.3 1.3 0 0 0 .692-.361zm-13.829.072a1.29 1.29 0 0 0-.69.361 1.29 1.29 0 0 0-.361.69l-1.612 8.992-4.313-8.054a1.303 1.303 0 0 0-1.325-.675L25.241 44.1l6.327-6.59a1.3 1.3 0 0 0 .232-1.469l-3.981-8.224 8.225 3.98c.49.237 1.076.145 1.469-.232l6.59-6.327-1.244 9.052c-.074.54.195 1.068.675 1.325l8.054 4.313-8.994 1.614zm11.707-18.531l7.365-7.364a1.302 1.302 0 1 0-1.841-1.842L52.46 21.17a1.302 1.302 0 0 0 1.841 1.841zM21.167 52.463l-7.362 7.363a1.3 1.3 0 1 0 1.84 1.841l7.363-7.362c.508-.509.508-1.333 0-1.842s-1.333-.509-1.841 0zm-.001-29.455a1.302 1.302 0 0 0 1.841-1.841l-7.362-7.362a1.301 1.301 0 1 0-1.84 1.842l7.361 7.361zm21.96-5.39a1.301 1.301 0 0 0 1.595-.921L47.414 6.64a1.301 1.301 0 1 0-2.515-.673l-2.694 10.057a1.301 1.301 0 0 0 .921 1.594zm-10.78 40.236a1.302 1.302 0 0 0-1.596.92l-2.694 10.058a1.302 1.302 0 0 0 2.514.674l2.696-10.058a1.303 1.303 0 0 0-.92-1.594zM5.965 30.571l10.058 2.694a1.303 1.303 0 0 0 .674-2.515L6.64 28.057a1.302 1.302 0 1 0-.675 2.514zm51.889 1.775a1.303 1.303 0 0 0 1.595.92l10.058-2.694a1.303 1.303 0 0 0-.675-2.516l-10.057 2.695c-.697.187-1.107.9-.921 1.595zM17.279 44.385a1.303 1.303 0 0 0-1.257-2.179L5.965 44.9a1.302 1.302 0 0 0 .675 2.516l10.057-2.695c.228-.062.426-.18.582-.336zM30.75 16.696a1.303 1.303 0 0 0 2.516-.675L30.571 5.966a1.303 1.303 0 0 0-2.516.674l2.695 10.056z"/></svg>