<svg xmlns="http://www.w3.org/2000/svg" xmlns:xlink="http://www.w3.org/1999/xlink" version="1.1" x="0px" y="0px" viewBox="0 0 100 125" enable-background="new 0 0 100 100" xml:space="preserve"><path d="M94.047,89.445L52.628,48.026c-1.271-1.271-3.331-1.271-4.602,0c-1.271,1.271-1.271,3.331,0,4.602l41.419,41.419  c1.271,1.271,3.331,1.271,4.602,0S95.317,90.716,94.047,89.445z"/><path d="M56.423,41.47c0.002-0.002,0.006-0.006,0.009-0.009c0.508-0.509,0.508-1.332,0-1.841c-0.139-0.139-0.3-0.238-0.472-0.302  l-10.4-5.568l1.631-11.865c0.075-0.549-0.205-1.085-0.698-1.337c-0.494-0.252-1.093-0.163-1.492,0.221l-8.639,8.294l-10.778-5.219  c-0.499-0.241-1.096-0.141-1.488,0.251c-0.392,0.393-0.492,0.989-0.251,1.488l5.219,10.779L20.769,45  c-0.384,0.399-0.473,0.998-0.221,1.492c0.252,0.493,0.788,0.773,1.337,0.698l11.864-1.631l5.653,10.557  c0.261,0.489,0.804,0.759,1.352,0.672c0.547-0.087,0.979-0.511,1.077-1.057l2.113-11.786l11.787-2.114  C56,41.783,56.239,41.654,56.423,41.47z M42.594,41.542c-0.269,0.048-0.507,0.177-0.69,0.361c-0.185,0.184-0.313,0.422-0.361,0.69  l-1.612,8.992l-4.313-8.054c-0.257-0.479-0.785-0.749-1.325-0.675l-9.052,1.244l6.327-6.59c0.377-0.393,0.47-0.979,0.232-1.469  l-3.981-8.224l8.225,3.98c0.49,0.237,1.076,0.145,1.469-0.232l6.59-6.327l-1.244,9.052c-0.074,0.54,0.195,1.068,0.675,1.325  l8.054,4.313L42.594,41.542z"/><path d="M54.301,23.011l7.365-7.364c0.509-0.509,0.509-1.333,0-1.842c-0.509-0.508-1.333-0.508-1.841,0L52.46,21.17  c-0.508,0.508-0.508,1.332,0,1.841C52.969,23.519,53.793,23.519,54.301,23.011z"/><path d="M21.167,52.463l-7.362,7.363c-0.509,0.508-0.509,1.333,0,1.841c0.508,0.509,1.332,0.509,1.84,0l7.363-7.362  c0.508-0.509,0.508-1.333,0-1.842S21.675,51.954,21.167,52.463z"/><path d="M21.166,23.008c0.508,0.508,1.333,0.508,1.841,0c0.509-0.508,0.509-1.332,0-1.841l-7.362-7.362  c-0.508-0.508-1.332-0.508-1.84,0c-0.509,0.509-0.509,1.333,0,1.842L21.166,23.008z"/><path d="M43.126,17.618c0.466,0.124,0.939-0.02,1.258-0.339c0.156-0.155,0.275-0.354,0.337-0.582L47.414,6.64  c0.187-0.694-0.226-1.407-0.92-1.594s-1.409,0.227-1.595,0.921l-2.694,10.057C42.019,16.719,42.431,17.432,43.126,17.618z"/><path d="M32.346,57.854c-0.695-0.187-1.409,0.225-1.596,0.92l-2.694,10.058c-0.187,0.694,0.226,1.408,0.92,1.595  c0.466,0.124,0.94-0.02,1.259-0.338c0.155-0.156,0.274-0.354,0.335-0.583l2.696-10.058C33.451,58.754,33.039,58.04,32.346,57.854z"/><path d="M5.965,30.571l10.058,2.694c0.466,0.125,0.94-0.02,1.259-0.338c0.155-0.155,0.274-0.354,0.336-0.582  c0.187-0.694-0.227-1.408-0.921-1.595L6.64,28.057c-0.695-0.186-1.41,0.226-1.595,0.92C4.859,29.672,5.271,30.385,5.965,30.571z"/><path d="M57.854,32.346c0.187,0.694,0.899,1.105,1.595,0.92l10.058-2.694c0.229-0.062,0.426-0.181,0.582-0.337  c0.318-0.318,0.462-0.792,0.338-1.258c-0.187-0.695-0.9-1.106-1.595-0.921l-10.057,2.695C58.078,30.938,57.668,31.651,57.854,32.346  z"/><path d="M17.279,44.385c0.318-0.317,0.462-0.792,0.338-1.259c-0.187-0.693-0.9-1.106-1.595-0.92L5.965,44.9  c-0.696,0.188-1.105,0.9-0.92,1.595c0.187,0.694,0.899,1.107,1.595,0.921l10.057-2.695C16.925,44.659,17.123,44.541,17.279,44.385z"/><path d="M30.75,16.696c0.187,0.694,0.9,1.106,1.596,0.92c0.228-0.062,0.426-0.18,0.582-0.336c0.317-0.318,0.463-0.792,0.338-1.259  L30.571,5.966c-0.188-0.694-0.9-1.106-1.595-0.92c-0.696,0.186-1.106,0.9-0.921,1.594L30.75,16.696z"/></svg>
